<svg xmlns="http://www.w3.org/2000/svg" viewBox="0 0 608.63 438.11"><defs><style>.cls-1{fill:#fff;}</style></defs><g id="Capa_2" data-name="Capa 2"><g id="Capa_2-2" data-name="Capa 2"><path class="cls-1" d="M190.32,252.22c10.06,0,17.52-8.43,17.52-18.16,0-4.55,1.62-7,3.41-7,2.11,0,4.38,3.41,4.38,10.38,0,14.28-9.73,25.31-28.87,25.31-37.31,0-65.53-42-65.53-106.08-16.71,25.14-28.39,46.39-28.39,54.66,0,3.4-1.94,5-4.86,5-9.41,0-27.74-15.9-27.74-29.85C60.24,167.88,93,77.05,113,41.36c-36.82,13.3-77.53,50.28-77.53,83.37,0,14.28,7.46,22.55,18.33,22.55,4.54,0,7,1.62,7,3.4,0,2.11-3.41,4.22-10.39,4.22-17.84,0-30-14.76-30-37C20.34,68.94,80.19,17,126.74,17c12.33,0,27.9,12.49,27.9,21.25a5.08,5.08,0,0,1-1.46,3.89c-5.84,6.81-37.47,73.48-53.69,120C130.8,101.21,205.41,0,224.55,0,233.15,0,246,20.6,246,28.71c0,2.11-.81,3.24-2.6,3.24-2.92,0-4.05-3.24-7.78-3.24-14,0-54.5,45.58-88.89,91.81C146.69,199.83,165,252.22,190.32,252.22Z"/><path class="cls-1" d="M162.9,187.34c0-12.16,26.93-89.53,34.39-89.53,9.25,0,26.76,10.54,26.76,17,0,1.46-1,2.43-1.62,2.43-6.16,0-26.11,64.88-26.11,72.83,0,.81.16,1.78.48,1.78,2.27,0,46.07-61.63,50-68,2-3.24,4.87-5.51,7.62-5.51,2.11,0,4.06,1.46,3.9,3.08-.49,7.14-54.83,85.32-60.66,85.32C180.75,206.81,162.9,197.4,162.9,187.34ZM204.1,75.42c0-13.46,14.6-36.82,23.52-36.82,6.17,0,23.52,10.87,23.52,15.9a2.61,2.61,0,0,1-2.43,2.43c-5.84,0-16.38,23-16.38,33.58,0,1.94-.33,3.24-5.84,3.24C213.35,93.75,204.1,86,204.1,75.42Z"/><path class="cls-1" d="M254.7,206.81c-16.87,0-31-16.71-31-37.31,0-30.17,30.5-73.31,51.75-73.31,17,0,37.46,11.35,37.46,21.08,0,3.25-2.27,5.19-3.89,5.19a3.11,3.11,0,0,1-1.3-.32,49,49,0,0,1,1,10.38,46.43,46.43,0,0,1-.17,4.86c13.14,0,25.31-7.62,30.34-18.49,1.78-3.89,3.57-5,5.35-5,2.27,0,3.73,1.94,3.73,5.51,0,13.14-21.41,27.57-40.71,27.57C301.09,177.12,277.09,206.81,254.7,206.81ZM262,193c12.33,0,29-25.14,34.71-47.85-10-3.24-17.51-10.71-18.65-19.46-12.49,13-22.87,37.14-22.87,55.14C255.19,190.75,258.27,193,262,193Zm32.12-73c-2.11,0-3.89,2.11-3.89,5.51,0,4.38,3.08,8,8.11,10.06a44.59,44.59,0,0,0,.16-4.54C298.5,123.6,296.55,120,294.12,120Z"/><path class="cls-1" d="M373.11,196.43c0,16.38-30,34.71-43.31,34.71-10.71,0-28.55-11.52-28.55-26.28,0-9.73,7.79-20.92,30.5-31.14,2.1-1,4.7-2.27,7.29-3.57-10.7-12-18.16-25.79-18.16-33.74,0-16.71,31.63-46.23,49.15-46.23,11,0,29.35,11.68,29.35,25.79,0,4.87-2.1,6.65-3.89,6.65a2.57,2.57,0,0,1-2.43-2.75c0-2.76-3.57-5-6.81-5-10.39,0-35.53,22.22-35.53,32.44,0,3.24,2.44,8.11,5.68,13.62,24-13.46,52.55-31.46,62.29-38.6,3.89-3.08,6.32-4.22,7.94-4.22a4.15,4.15,0,0,1,4.06,4.22c0,2.43-1.79,4.87-3.73,6.33-8.76,6.48-39.42,26.11-65.21,41C367.43,179.23,373.11,189.29,373.11,196.43ZM347,186.53a16.28,16.28,0,0,0-2.27-7.3c-3.08,1.62-6,3.08-8.6,4.38-19.78,9.57-26.27,17.52-26.27,22.06,0,2.76,2.27,4.22,5.51,4.22C324.77,209.89,347,196.91,347,186.53Z"/><path class="cls-1" d="M428.74,193c24.33,0,65.69-63.26,70.39-71.69,1.62-2.92,3.25-4.55,5.19-4.55,2.44,0,4.71,2.76,4.71,6a9.54,9.54,0,0,1-1.14,4c-.48,1.14-46.22,80-84.34,80-16.55,0-32.6-14.76-32.6-37.15,0-31,30.49-71.85,57.09-71.85,15.08,0,30.82,13.14,30.82,25.63,0,4.7-2.27,6.64-4.06,6.64a2.17,2.17,0,0,1-2.27-2.43c0-3.08-3.73-5-7.95-5-17.84,0-43.47,32.28-43.47,59C421.11,190.75,424,193,428.74,193Z"/><path class="cls-1" d="M506.1,206.81c-16.87,0-31-16.71-31-37.31,0-30.17,30.5-73.31,51.75-73.31,17,0,37.46,11.35,37.46,21.08,0,3.25-2.27,5.19-3.89,5.19a3.11,3.11,0,0,1-1.3-.32,49,49,0,0,1,1,10.38,46.43,46.43,0,0,1-.17,4.86c13.14,0,25.31-7.62,30.34-18.49,1.78-3.89,3.56-5,5.35-5,2.27,0,3.73,1.94,3.73,5.51,0,13.14-21.41,27.57-40.71,27.57C552.49,177.12,528.49,206.81,506.1,206.81ZM513.4,193c12.33,0,29-25.14,34.71-47.85-10.05-3.24-17.51-10.71-18.65-19.46-12.49,13-22.87,37.14-22.87,55.14C506.59,190.75,509.67,193,513.4,193Zm32.12-73c-2.11,0-3.9,2.11-3.9,5.51,0,4.38,3.09,8,8.12,10.06a44.59,44.59,0,0,0,.16-4.54C549.9,123.6,548,120,545.52,120Z"/><path class="cls-1" d="M12,338.27a63.28,63.28,0,0,0-1.2,9.2c0,7.28,5.52,11,12.32,11,4.8,0,8.64-1.44,11.36-4.64,2.08-2.4,3.44-5.76,4.64-12.56l5.36-30H55.36l-5.52,31.13c-1.52,8.8-3.68,13.92-7,17.76-4.48,5.2-11,7.92-19.68,7.92-12.24,0-23.12-7.2-23.12-21.2,0-3,1.28-9.44,1.92-12.88l4-22.73H16.8Z"/><path class="cls-1" d="M70.56,329.31l-.56,2.8a19.4,19.4,0,0,1,10.8-3.61,15.86,15.86,0,0,1,13.12,6.81,17.41,17.41,0,0,1,2.88,9.92,41.42,41.42,0,0,1-.64,6.8l-2.72,15.28H83l3-17a24.58,24.58,0,0,0,.48-4.56c0-4.32-2.4-7.6-7.28-7.6-3.68,0-7.52,2.08-10.24,4.8l-4.32,24.4H54.16l6.72-38Z"/><path class="cls-1" d="M154.8,363.79a24.71,24.71,0,0,1-14.24,4.32c-11,0-20.08-7.44-20.08-19.2,0-10.72,8.32-20.41,19.92-20.41,9.92,0,17.28,7.61,17.28,17.61A18.48,18.48,0,0,1,157,351h-27c.4,4.8,4.16,8.72,10.56,8.72a18.61,18.61,0,0,0,9.84-3Zm-7-20.16a7.21,7.21,0,0,0-7.52-6.72c-4.16,0-7.52,2.56-9,6.72Z"/><path class="cls-1" d="M163.44,355.47c2.4,1.84,6.08,3.84,10.08,3.84,2.72,0,5.76-1,5.76-3.28s-3.92-3.68-7.92-5.52-7.68-4.64-7.68-10c0-7.75,8.24-12,15.6-12a24.24,24.24,0,0,1,12.8,3.53l-4.4,7.52a15.77,15.77,0,0,0-7.84-2.24c-1.76,0-5.76.48-5.76,3.19,0,2.41,4.08,3.05,7.76,4.89,4.16,2.08,7.84,5.2,7.84,10.56,0,7.68-7.76,12.16-16.24,12.16a24.75,24.75,0,0,1-15.36-5.2Z"/><path class="cls-1" d="M190.72,386.51l10.08-57.2h9.52l-.4,2.56a17,17,0,0,1,10.56-3.37c9.2,0,17,7.21,17,17.93,0,7.28-3.84,15-10.32,18.8a20.06,20.06,0,0,1-22.16-1l-3.84,22.24Zm16.08-31.84a13.08,13.08,0,0,0,9.2,3.76,11.24,11.24,0,0,0,11.12-11.52c0-5.2-3.36-8.88-8.88-8.88a12.74,12.74,0,0,0-9.28,4.24Z"/><path class="cls-1" d="M284.64,329.31l-6.72,38H268.4l.4-2.56a17,17,0,0,1-10.56,3.36c-9.2,0-17-7.2-17-17.92,0-7.28,3.84-15,10.32-18.8A21.1,21.1,0,0,1,262,328.5a20.62,20.62,0,0,1,12.4,4.41l.64-3.6ZM271.92,342a13.08,13.08,0,0,0-9.2-3.76,11.24,11.24,0,0,0-11.12,11.52c0,5.2,3.36,8.88,8.88,8.88a12.74,12.74,0,0,0,9.28-4.24Z"/><path class="cls-1" d="M322.88,362.11a21,21,0,0,1-15,6c-11.6,0-20.24-8.4-20.24-19.2,0-11.6,9.68-20.41,21.2-20.41a20.35,20.35,0,0,1,15.92,7.13L318,342a12,12,0,0,0-8.8-3.84c-5.6,0-11.12,4.56-11.12,10.8,0,5.28,4.32,9.6,10.16,9.6a12.78,12.78,0,0,0,8.48-3.44Z"/><path class="cls-1" d="M343.6,329.31l-6.72,38H326.4l6.72-38Zm-2.8-20.4a6.64,6.64,0,1,1-6.8,6.63A6.65,6.65,0,0,1,340.8,308.91Z"/><path class="cls-1" d="M366.4,368.11c-11.29,0-19.77-8.48-19.77-19,0-11.44,9.84-20.65,21.37-20.65,11.28,0,19.76,8.49,19.76,19C387.76,358.91,377.92,368.11,366.4,368.11Zm0-9.6a11.15,11.15,0,0,0,11-11,9.17,9.17,0,0,0-9.35-9.36,11.15,11.15,0,0,0-11,11A9.18,9.18,0,0,0,366.4,358.51Z"/><path class="cls-1" d="M439.43,314.5a13,13,0,0,0-3.76-.48,9.18,9.18,0,0,0-7.36,3.29c-1.44,1.6-2.16,3.76-2.88,7.6l-1.2,6.72h12.48l-.8,4.32h-12.4L418,367.31h-4.56L419,336h-9.6l.8-4.32h9.52L421,324c.72-4.24,1.92-7.45,4-9.77a13.88,13.88,0,0,1,10.64-4.55,15.67,15.67,0,0,1,5,.71Z"/><path class="cls-1" d="M458.07,335.23a4.92,4.92,0,0,0-1-.08c-5.2,0-10,3.92-12.4,7.92l-4.16,24.24h-4.56l6.24-35.68h4.56l-.72,4.16a15.19,15.19,0,0,1,10.88-5,11.9,11.9,0,0,1,2.24.24Z"/><path class="cls-1" d="M490.15,363.15a19,19,0,0,1-12.8,5,18.49,18.49,0,0,1-11.52-3.52,18,18,0,0,1-6.72-14.16c0-10.88,8.16-19.6,18.4-19.6,9.6,0,15.76,7.28,15.76,17a18.08,18.08,0,0,1-.08,2.08H463.67v.56c0,7.2,5.12,13.36,13.52,13.36a15.47,15.47,0,0,0,10.16-4Zm-25.92-17.44h24.4c-.4-6.4-5-10.56-11.12-10.56A14,14,0,0,0,464.23,345.71Z"/><path class="cls-1" d="M522,336h-21.2l.8-4.32h28.24l-.48,2.71L501.67,363h24.72l-.8,4.32H493.67l.48-2.72Z"/><path class="cls-1" d="M563,340.83a15,15,0,0,0-11.92-5.68A15.35,15.35,0,0,0,536,350.43c0,7.44,5.68,13.36,13.92,13.36a16.18,16.18,0,0,0,12.48-5.92l3.28,2.8A20,20,0,0,1,550,368.11c-9.84,0-18.56-7-18.56-17.68a19.7,19.7,0,0,1,19.68-19.6A19.07,19.07,0,0,1,566.23,338Z"/><path class="cls-1" d="M590.63,330.83c10.48,0,18,7.75,18,17.68a19.77,19.77,0,0,1-20,19.6c-10.48,0-18-7.76-18-17.68A19.77,19.77,0,0,1,590.63,330.83Zm0,4.32a15.42,15.42,0,0,0-15.44,15.28,13,13,0,0,0,13.44,13.36,15.47,15.47,0,0,0,15.44-15.28A13,13,0,0,0,590.63,335.15Z"/><path class="cls-1" d="M134.84,401.62h4.56l-6.24,35.69H128.6l.72-3.68a16.9,16.9,0,0,1-11.6,4.48,17.26,17.26,0,0,1-17.28-17.69c0-11.35,8.56-19.59,19.36-19.59a18.72,18.72,0,0,1,14.08,6.4ZM133,412.34a16.71,16.71,0,0,0-13.2-7.19A14.93,14.93,0,0,0,105,420.42c0,7.05,5.28,13.37,12.88,13.37,4.88,0,9.2-2.64,12.48-6.56Z"/><path class="cls-1" d="M154.6,380.5h4.56l-10,56.81H144.6Z"/><path class="cls-1" d="M221.72,399.3l-6.72,38h-9.52l.4-2.56a17,17,0,0,1-10.56,3.36c-9.2,0-17-7.2-17-17.93,0-7.27,3.84-14.95,10.32-18.8a21.1,21.1,0,0,1,10.48-2.88,20.56,20.56,0,0,1,12.4,4.41l.64-3.61ZM209,412a13,13,0,0,0-9.2-3.77,11.25,11.25,0,0,0-11.12,11.53c0,5.2,3.36,8.87,8.88,8.87a12.71,12.71,0,0,0,9.28-4.24Z"/><path class="cls-1" d="M241.48,399.3l-6.72,38H224.27l6.73-38Zm-2.8-20.4a6.64,6.64,0,1,1-6.8,6.64A6.66,6.66,0,0,1,238.68,378.9Z"/><path class="cls-1" d="M270.76,408.42a9.94,9.94,0,0,0-2.64-.32c-3.84,0-7.6,2.81-9.36,5.21l-4.24,24H244l6.72-38h9.69l-.64,3.2a13.23,13.23,0,0,1,9.84-4,13.93,13.93,0,0,1,4.08.57Z"/><path class="cls-1" d="M307.72,433.79a24.71,24.71,0,0,1-14.24,4.32c-11,0-20.09-7.44-20.09-19.2,0-10.73,8.32-20.41,19.92-20.41,9.93,0,17.29,7.6,17.29,17.6A18.5,18.5,0,0,1,310,421H283c.4,4.8,4.16,8.72,10.56,8.72a18.61,18.61,0,0,0,9.84-3Zm-7-20.17a7.21,7.21,0,0,0-7.52-6.71c-4.16,0-7.53,2.55-9.05,6.71Z"/><path class="cls-1" d="M341.88,380.5h10.47l-10.08,56.81H331.79Z"/><path class="cls-1" d="M368.75,399.3l-6.72,38H351.55l6.72-38ZM366,378.9a6.64,6.64,0,1,1-6.8,6.64A6.66,6.66,0,0,1,366,378.9Z"/><path class="cls-1" d="M371.31,437.31l10.08-56.81h10.48l-3.68,20.65a16.11,16.11,0,0,1,9.52-2.65c9.2,0,17,7.21,17,17.92,0,7.29-3.84,15-10.32,18.81A21.1,21.1,0,0,1,394,438.11a20.61,20.61,0,0,1-12.4-4.4l-.64,3.6ZM384,424.67a13.07,13.07,0,0,0,9.2,3.75,11.23,11.23,0,0,0,11.12-11.51c0-5.2-3.36-8.89-8.88-8.89a12.74,12.74,0,0,0-9.28,4.24Z"/><path class="cls-1" d="M444.27,408.42a9.94,9.94,0,0,0-2.64-.32c-3.84,0-7.6,2.81-9.36,5.21l-4.24,24H417.55l6.72-38H434l-.64,3.2a13.23,13.23,0,0,1,9.84-4,13.93,13.93,0,0,1,4.08.57Z"/><path class="cls-1" d="M481.23,433.79A24.71,24.71,0,0,1,467,438.11c-11,0-20.08-7.44-20.08-19.2,0-10.73,8.32-20.41,19.92-20.41,9.92,0,17.28,7.6,17.28,17.6a18.5,18.5,0,0,1-.64,4.89h-27c.4,4.8,4.16,8.72,10.56,8.72a18.61,18.61,0,0,0,9.84-3Zm-7-20.17a7.21,7.21,0,0,0-7.52-6.71c-4.16,0-7.52,2.55-9,6.71Z"/><path class="cls-1" d="M497.87,424.42a6.87,6.87,0,0,1,7,6.89,7,7,0,1,1-7-6.89Z"/><line x1="247.07" y1="277.71" x2="357.07" y2="277.71"/><path class="cls-1" d="M357.08,280.21h-110a2.5,2.5,0,1,1,0-5h110a2.5,2.5,0,0,1,0,5Z"/></g></g></svg>