<svg xmlns="http://www.w3.org/2000/svg" viewBox="0 0 727.43 377.23"><defs><style>.cls-1{fill:#fff;}</style></defs><title>LOGO_V1_CY</title><g id="Capa_2" data-name="Capa 2"><g id="Capa_5" data-name="Capa 5"><path class="cls-1" d="M654.86,329.78l-.93,0c-6-.16-11.37-1.91-14.47-4.67-5.91-5.28-5.83-13.61-4.34-17.93,1-2.88,2.79-8.11,9.65-13.77l6.42-5.33a5,5,0,1,1,6.39,7.69l-6.43,5.34c-4.7,3.88-5.77,7-6.55,9.26-.42,1.21-.81,5.2,1.52,7.27s12.7,3.92,20.69-1.16c2.11-1.34,2.32-6.57,2-9.08a5,5,0,0,1,8.52-4.23c5,5.1,10.7,7.93,12.07,7.35l1.55-.62c1.28-.51,2.87-1.15,4.44-1.91l1.67-.83c2-1.14,4.08-2.2,6.1-3.23,1.46-.74,3-1.51,4.4-2.28l1.36-.76c1-.61,2-1.14,3-1.64,3-1.55,4.75-2.54,5.48-4.4a5.79,5.79,0,0,0-1.55-1.44c-.34-.24-.6-.41-.87-.58-.93-.57-1.94-1.08-2.81-1.5-.5-.26-.84-.41-1-.48-15.43-5.57-37.89-3.3-44.42-2.48a5,5,0,0,1-1.26-9.92c9.11-1.15,32.15-3.17,49.21,3.05l.17.06c.12,0,.79.33,1.75.82a38.28,38.28,0,0,1,3.59,1.94c.45.27.9.57,1.33.88,4.8,3.26,6.87,7.92,5.47,12.4-2,6.1-6.9,8.66-10.51,10.53-.89.46-1.74.9-2.49,1.35l-.11.07-1.6.89c-1.55.84-3.12,1.64-4.64,2.41-2,1-4,2-5.78,3.05l-.26.14-1.88.93c-1.9.93-3.68,1.64-5.12,2.22-.5.2-1,.38-1.35.55-5,2.11-10.69-.2-15.23-3.12a14,14,0,0,1-5.85,8.3A32.53,32.53,0,0,1,654.86,329.78Z"/><path class="cls-1" d="M.85,348.85c-3.14-19,2.63-46.54,13.45-76C39.89,203.08,113.54,87.54,144.87,82.34c10.64-1.76,23,3.54,25.93,20.94,1.22,7.35,1.57,11.87.36,23.79-1.4,15.53-11,65.42-10.6,67.93.26,1.55,1.87,2.87,2.19,4.8.51,3.1-1,3.55-4.29,4.09-7.35,1.22-12.86-3.23-13.56-7.49-1.06-6.38,15.92-71.79,11.5-98.48-.49-2.9-1-3.61-2.74-3.32C132.38,98.12,64.36,194.85,40,252.94,28.8,280,11.51,324.43,16.22,352.86c1.9,11.41,8.37,14.51,26.55,11.5,20.7-3.43,88.47-39.31,113.08-59.88l7.42-5.6c4.06-.68,10.63,4.2,11.15,7.29.29,1.74-.88,3.13-3.62,5.77C147.87,333,77.67,372.28,50.2,376.84,21.78,379.16,4.6,371.48.85,348.85Z"/><path class="cls-1" d="M132.2,76.28l-5.34-6.43a5,5,0,1,0-7.69,6.39l4.9,5.9a67.44,67.44,0,0,1,8.35-5.61Z"/><path class="cls-1" d="M110.78,75.76a5,5,0,0,0-1.56,6.89l4.47,7.09c.22.34.42.67.6,1q3.92-3.81,7.55-6.82l-4.16-6.6A5,5,0,0,0,110.78,75.76Z"/><path class="cls-1" d="M115.13,66.28a5,5,0,0,0,4.33-5.59c-.82-6.53-3.09-29,2.48-44.41.06-.15.22-.5.48-1,.42-.86.93-1.87,1.5-2.8.17-.27.34-.54.58-.87a5.47,5.47,0,0,1,1.44-1.55c1.86.72,2.85,2.49,4.4,5.48.51,1,1,2,1.64,3,.26.45.51.9.76,1.36.77,1.43,1.54,2.94,2.28,4.4,1,2,2.09,4.11,3.23,6.1.28.56.56,1.12.83,1.68.76,1.56,1.4,3.16,1.91,4.44l.62,1.54c.58,1.37-2.25,7-7.35,12.07a5,5,0,0,0,4.23,8.52c2.51-.36,7.74-.15,9.08,2a22.26,22.26,0,0,1,3.28,11.47,31.37,31.37,0,0,1,10,2.26c0-.28,0-.56.05-.85A32.61,32.61,0,0,0,156,55.25a14.11,14.11,0,0,0-8.3-5.85c2.92-4.53,5.22-10.23,3.11-15.22l-.54-1.35c-.58-1.44-1.29-3.23-2.22-5.13-.3-.62-.61-1.24-.92-1.87l-.15-.27c-1-1.81-2-3.74-3.05-5.78-.78-1.52-1.57-3.09-2.41-4.64l-.89-1.6-.07-.11c-.45-.75-.89-1.59-1.35-2.49-1.87-3.61-4.43-8.55-10.53-10.51-4.49-1.4-9.14.68-12.41,5.47-.3.43-.59.88-.87,1.33-.8,1.3-1.45,2.58-1.94,3.59s-.77,1.63-.82,1.75l-.06.17c-6.22,17.06-4.2,40.1-3,49.21A5,5,0,0,0,115.13,66.28Z"/><path class="cls-1" d="M51.33,78.21l.09.09c.41.46.82.9,1.24,1.34,1.22,1.29,2.46,2.53,3.66,3.73,1.62,1.62,3.15,3.15,4.55,4.7l.21.22,1.49,1.46c1.53,1.47,3,2.7,4.19,3.69l1.12.94C72,97.94,78.1,97.51,83.32,96.14a14.08,14.08,0,0,0,3,9.71,31.52,31.52,0,0,0,8.26,7q3.3-4.12,6.49-7.85a21.54,21.54,0,0,1-7-5.48c-1.59-1.93-.16-7,1-9.22a5,5,0,0,0-6.77-6.68c-6.37,3.29-12.65,4.23-13.77,3.25l-1.27-1.07c-1.06-.88-2.38-2-3.63-3.19L68.2,81.26c-1.55-1.7-3.2-3.36-4.81-5C62.24,75.14,61,74,59.92,72.76c-.36-.37-.71-.75-1.06-1.13-.78-.9-1.58-1.71-2.36-2.5-2.37-2.41-3.75-3.91-3.85-5.88a6.06,6.06,0,0,1,2-.92c.3-.09.61-.18.92-.25a31.89,31.89,0,0,1,3.21-.57c.5-.08.87-.12,1-.13,16.43-.51,37.05,8.59,43,11.4a5,5,0,1,0,4.26-9c-8.3-3.92-29.59-13-47.72-12.35h-.19c-.13,0-.84.07-1.84.23a41.23,41.23,0,0,0-4.09.74c-.51.12-1,.26-1.45.4-5.66,1.64-9.07,5.43-9.13,10.16,0,6.37,3.88,10.33,6.73,13.23C50.09,76.86,50.76,77.54,51.33,78.21Z"/><path class="cls-1" d="M163.87,267.78c-4.1-24.76,10.93-73.15,27.56-75.91,7.35-1.22,19,5.79,21,5.47.81-2.32,7.24-16.31,12.07-17.11,5.22-.86,10.76,1.4,11.28,4.49.61,3.68-7.16,38.35-3.31,61.56,2.46,14.89,7,18.31,7.49,21.21.41,2.52-1.3,5.38-4.78,6-4.64.77-9.51-1-12-4.17-1.8-2.48-5.78-15.73-7.16-24l-1.25-8.73s-14,37.69-18.73,44c-2.42,3.38-5.1,5.21-8.39,5.76C173.49,288.64,166.41,278.29,163.87,267.78Zm43.57-57.3c-5.57-7.22-7.09-9.16-8.44-8.93-9.51,6.14-22.63,44.48-18.75,67.89.38,2.32,1,3.8,1.6,3.7C183.21,272.92,196.71,238.09,207.44,210.48Z"/><path class="cls-1" d="M242.56,255.73c-2.49-.58-5.93-3.39-6.12-4.55-.13-.77.68-3.09,4.35-3.7,4.84-.8,14.89,1.11,20.11.24,4.06-.67,6.22-2,5.81-4.54-1.09-6.57-13.91-22.73-15.89-34.72-2.09-12.57,1.61-37,20.37-40.14,11-1.83,22.23,4.66,22.94,8.91.19,1.17-.36,2.65-2.49,3-3.48.58-9.73-2.36-12.63-1.88-7.93,1.31-14.39,21.06-12.53,32.28,1.6,9.67,14.8,24.57,16.34,33.86,1.09,6.57-3.52,11.11-16.09,13.2C250.9,259.32,258.8,257.81,242.56,255.73Z"/><path class="cls-1" d="M292.1,246.53C288,221.77,303,173.38,319.66,170.62c7.35-1.22,19,5.78,21,5.46.81-2.32,7.24-16.3,12.08-17.1,5.22-.86,10.76,1.4,11.27,4.49.61,3.68-7.16,38.35-3.31,61.56,2.47,14.89,7,18.31,7.49,21.21.42,2.52-1.29,5.38-4.78,6-4.64.77-9.5-1-12-4.17-1.81-2.48-5.79-15.73-7.17-24.05L343,215.25s-14,37.69-18.73,44c-2.42,3.38-5.1,5.21-8.39,5.76C301.72,267.39,294.63,257,292.1,246.53Zm43.56-57.3c-5.57-7.22-7.08-9.16-8.44-8.94-9.51,6.15-22.63,44.49-18.75,67.9.38,2.32,1,3.8,1.61,3.7C311.43,251.67,324.93,216.84,335.66,189.23Z"/><path class="cls-1" d="M399.94,297.35c-7-7.58-10.95-9.71-11.43-12.61-.19-1.16-.32-3.13,3-3.67,11.61-1.92,32.56,27.39,38.56,26.4,19.14-3.17,31.54-61.47,59.52-209.18-.13.42-19.68,131.65-42.53,139.94-7.74,2.81-19-.18-23.46-12.35C413.07,197,413.36,37.93,422.21,34.72c4.23-1.54,11.13,1.38,12.6,5.44,1,2.76,3.43,54.85,7.42,72.18,1,4.62.65,5.81-1.93,6.74-3.32,1.21-5,.14-8.91-1.56-.25,40.13,3.41,96.78,7.16,107.1.4,1.11.4,1.11.58,1,11.06-4,37.1-105.85,38-109.71,20.05-76.93,22.43-83.3,27.46-84.14,4.06-.67,11.79,2.82,12.66,8,.92,5.61-11.6,58.36-30.9,158.93-12.59,66.67-20.63,112.91-46.77,119.43C427.71,319.78,421.55,321,399.94,297.35Z"/><path class="cls-1" d="M555.5,152.8c-2.65-16-11.78-29.88-23.58-31.45a19.6,19.6,0,0,0-17.15,6.76c-4.71,5.73-16.06,28.54-14.64,62.28a87.1,87.1,0,0,0,1.15,11.74c3.33,20.11,14.06,26.08,26.25,24.06C548,222.8,559.61,177.55,555.5,152.8Zm-16.66,31.37c-2.07,15.05-9.28,22.79-11.82,23.94-1.25.57-4.31,2.19-5.56-5.35-2.18-13.16-5.67-30.34,2.12-51.7,2.13-6.32,4.33-11.71,7.44-11.69s5.54,4.65,7.08,13.93A118.45,118.45,0,0,1,538.84,184.17Z"/><path class="cls-1" d="M616.62,259.37l1.13-2.77c4.81-5.76,15.6-72.21,15.41-73.37-.78.13-10.26,11.24-17,12.36-12.18,2-23.74-10.17-26.08-24.29-3.63-21.86,4.68-52.05,6.85-55.78.29-.65,1.42-1,2.58-1.23a9.11,9.11,0,0,1,10.66,6.78c.77,4.64,1.28,13.7-2,14.24-1.55.26-5,23.88-2.36,39.74,1.22,7.35,1.8,7.26,3.12,9.22,16.93-12.94,34.47-53.4,42-75.12.39-1.26.68-1.9,1.84-2.09,3.48-.58,12.28,2.14,13,6.78-3.56,19.27-26.29,133.59-29.1,143-1.74,5.06-4.26,7.86-7.94,8.47C621.48,264.73,617.29,263.43,616.62,259.37Z"/><path class="cls-1" d="M644.78,278.11l-7.09,4.47c-5.13,3.26-8.42,3.31-10.9,3.36-1.2,0-5.11-.85-6.36-3.71-.61-1.4-.58-4.47.39-8a21.41,21.41,0,0,1-9.15-4.3c-.12.36-.25.71-.36,1.07-1.69,5.72-1.71,11.41,0,15.21,3.14,7.14,10.89,9.69,15.56,9.69h.22c3-.05,8.49-.14,16-4.9l7.07-4.46a5,5,0,1,0-5.33-8.46Z"/><path class="cls-1" d="M676.05,228.24c0-.06,0-.12,0-.18s-.07-.85-.22-1.85c-.17-1.19-.39-2.61-.75-4.09-.12-.51-.26-1-.39-1.45-1.65-5.65-5.44-9.07-10.17-9.13h-.07a14.74,14.74,0,0,0-8.39,2.64c-1.19,5.87-2.35,11.46-3.42,16.61.68-.67,1.36-1.34,2-2l1.15-1.06c.89-.77,1.71-1.58,2.5-2.36,2.4-2.37,3.9-3.75,5.87-3.85a5.68,5.68,0,0,1,.92,2c.09.31.18.62.25.93.26,1.07.43,2.18.58,3.21.07.5.11.87.13,1,.51,16.39-8.6,37-11.41,43a5,5,0,0,0,9,4.27C667.61,267.66,676.67,246.39,676.05,228.24Z"/><path class="cls-1" d="M608.35,25.6l-.1-1.77c-1.18-7.15-8.5-11.71-15.52-10.94-9.87,1.64-57,60.32-57,60.32S518.13,96,519.26,103.47c2.9,11.33,16.79-6.53,30.67-23.87S586.87,36.32,588.61,36l.49.51c.72,17.57-38.67,172-36.4,224,.25,3.93.41,6.09.64,7.45a4.62,4.62,0,0,0,1.7,3.09c1.61,2.52,30.1,3.49,30.37-.42.61-8.87-15.15-5.83-16-13.63C567,208.16,609.61,52.42,608.35,25.6Z"/></g></g></svg>