<svg xmlns="http://www.w3.org/2000/svg" viewBox="0 0 867.4 366.27"><defs><style>.cls-1{fill:#fff;}</style></defs><title>Recurso 4</title><g id="Capa_2" data-name="Capa 2"><g id="Capa_6" data-name="Capa 6"><path class="cls-1" d="M57.23,239.47H68.11l-9.92,56H47.31Z"/><path class="cls-1" d="M78,238.67H88.43l-10.08,56.8H67.87Z"/><path class="cls-1" d="M115.47,295.47l.56-2.8a18.63,18.63,0,0,1-10.56,3.6,15.56,15.56,0,0,1-13-6.8,17.41,17.41,0,0,1-2.88-9.92,41.42,41.42,0,0,1,.64-6.8L93,257.47h10.48l-3,17a24.58,24.58,0,0,0-.48,4.56c0,4.16,2.8,7.6,7.36,7.6,3.68,0,7.12-2.16,9.76-4.8l4.32-24.4h10.48l-6.72,38Z"/><path class="cls-1" d="M150.83,257.47l-.56,2.8a18.63,18.63,0,0,1,10.56-3.6,15.05,15.05,0,0,1,12.4,6.32c3-2.48,8.4-6.32,15.44-6.32a16.39,16.39,0,0,1,13.52,6.8,17.41,17.41,0,0,1,2.88,9.92,41.42,41.42,0,0,1-.64,6.8l-2.72,15.28H191.23l3-17a24.58,24.58,0,0,0,.48-4.56c0-4.32-2.56-7.6-7.12-7.6s-8.48,3-11,5.68a8.69,8.69,0,0,1,.08,1.44,41.42,41.42,0,0,1-.64,6.8l-2.72,15.28H162.83l3-17a24.58,24.58,0,0,0,.48-4.56c0-4.32-2.56-7.6-7.12-7.6-3.68,0-7.28,2.08-10,4.8l-4.32,24.4H134.43l6.72-38Z"/><path class="cls-1" d="M227.07,257.47l-6.72,38H209.87l6.72-38Zm-2.8-20.4a6.64,6.64,0,1,1-6.8,6.64A6.66,6.66,0,0,1,224.27,237.07Z"/><path class="cls-1" d="M246,257.47l-.56,2.8a19.4,19.4,0,0,1,10.8-3.6,15.85,15.85,0,0,1,13.12,6.8,17.41,17.41,0,0,1,2.88,9.92,41.42,41.42,0,0,1-.64,6.8l-2.72,15.28H258.43l3-17a24.58,24.58,0,0,0,.48-4.56c0-4.32-2.4-7.6-7.28-7.6-3.68,0-7.52,2.08-10.24,4.8l-4.32,24.4H229.63l6.72-38Z"/><path class="cls-1" d="M321,257.47l-6.72,38h-9.52l.4-2.56a17,17,0,0,1-10.56,3.36c-9.2,0-17-7.2-17-17.92,0-7.28,3.84-15,10.32-18.8a21.1,21.1,0,0,1,10.48-2.88,20.61,20.61,0,0,1,12.4,4.4l.64-3.6Zm-12.72,12.64a13.08,13.08,0,0,0-9.2-3.76A11.24,11.24,0,0,0,288,277.87c0,5.2,3.36,8.88,8.88,8.88a12.74,12.74,0,0,0,9.28-4.24Z"/><path class="cls-1" d="M359.23,290.27a21,21,0,0,1-15,6c-11.6,0-20.24-8.4-20.24-19.2,0-11.6,9.68-20.4,21.2-20.4a20.34,20.34,0,0,1,15.92,7.12l-6.8,6.32a12,12,0,0,0-8.8-3.84c-5.6,0-11.12,4.56-11.12,10.8,0,5.28,4.32,9.6,10.16,9.6a12.78,12.78,0,0,0,8.48-3.44Z"/><path class="cls-1" d="M380,257.47l-6.72,38H362.75l6.72-38Zm-2.8-20.4a6.64,6.64,0,1,1-6.8,6.64A6.66,6.66,0,0,1,377.15,237.07Z"/><path class="cls-1" d="M402.75,296.27c-11.28,0-19.76-8.48-19.76-19,0-11.44,9.84-20.64,21.36-20.64,11.28,0,19.76,8.48,19.76,19C424.11,287.07,414.27,296.27,402.75,296.27Zm0-9.6a11.15,11.15,0,0,0,11-11,9.17,9.17,0,0,0-9.36-9.36,11.15,11.15,0,0,0-11,11A9.17,9.17,0,0,0,402.75,286.67Zm16.24-48-9.6,12.8h-7.2l5.6-12.8Z"/><path class="cls-1" d="M443.3,257.47l-.55,2.8a19.36,19.36,0,0,1,10.79-3.6,15.86,15.86,0,0,1,13.13,6.8,17.41,17.41,0,0,1,2.88,9.92,41.42,41.42,0,0,1-.64,6.8l-2.72,15.28H455.71l3-17a24.58,24.58,0,0,0,.48-4.56c0-4.32-2.4-7.6-7.28-7.6-3.68,0-7.53,2.08-10.24,4.8l-4.33,24.4H426.9l6.72-38Z"/><path class="cls-1" d="M533.22,273.39a42,42,0,0,1-.64,6.56l-2.72,15.52h-7.68L524.9,280a39.36,39.36,0,0,0,.64-6.48c0-5.36-4.08-8.4-8.72-8.4a15.45,15.45,0,0,0-11.6,6L501,295.47H493.3l6.48-36.8h7.28l-.64,3.2a17.33,17.33,0,0,1,11.12-4,15.94,15.94,0,0,1,11.6,5A15.69,15.69,0,0,1,533.22,273.39Z"/><path class="cls-1" d="M557.78,296.27c-10.8,0-18.64-8-18.64-18.32,0-11.2,9.36-20.08,20.56-20.08,10.8,0,18.64,8,18.64,18.32C578.34,287.39,569,296.27,557.78,296.27Zm1.92-31.2a12.94,12.94,0,0,0-13,12.88,10.69,10.69,0,0,0,11,11.12,12.94,12.94,0,0,0,13-12.88A10.69,10.69,0,0,0,559.7,265.07Z"/><path class="cls-1" d="M618,288.67a19.43,19.43,0,0,1-15.92,7.6c-10.4,0-18.64-7.52-18.64-17.84a20.15,20.15,0,0,1,20.32-20.56,18,18,0,0,1,15.68,8.56l-5.92,4.24a11.88,11.88,0,0,0-10-5.6c-6.8,0-12.48,6.08-12.48,13,0,6.56,4.56,11,11.12,11A13.15,13.15,0,0,0,612.5,284Z"/><path class="cls-1" d="M647.22,295.47a17.21,17.21,0,0,1-5.44.8c-6.48,0-13.12-4-13.12-11.84a49.45,49.45,0,0,1,.64-5.28l2.4-13.68h-9.6l1.2-6.8h9.6l1.84-10.4h7.68l-1.84,10.4H652.5l-1.2,6.8H639.38l-2.56,14.8a37.84,37.84,0,0,0-.56,4.4c0,3.2,2.48,4.8,5.68,4.8a14.34,14.34,0,0,0,3.84-.56Z"/><path class="cls-1" d="M655.86,280.75a42,42,0,0,1,.64-6.56l2.72-15.52h7.68l-2.72,15.52a39.36,39.36,0,0,0-.64,6.48c0,5.36,3.84,8.4,8.48,8.4,4.24,0,8.4-2.24,11.44-6l4.24-24.4h7.68l-6.48,36.8h-7.28l.64-3.2a16.9,16.9,0,0,1-11,4,15.39,15.39,0,0,1-15.44-15.52Z"/><path class="cls-1" d="M724.58,265.31a9.93,9.93,0,0,0-2.16-.24c-4.8,0-9.36,3.2-11.52,6.4l-4.16,24h-7.68l6.48-36.8h7.28l-.72,3.52a16.43,16.43,0,0,1,10.48-4.32,12.39,12.39,0,0,1,4.08.64Z"/><path class="cls-1" d="M765.94,273.39a42,42,0,0,1-.64,6.56l-2.72,15.52H754.9L757.62,280a39.36,39.36,0,0,0,.64-6.48c0-5.36-4.08-8.4-8.72-8.4a15.45,15.45,0,0,0-11.6,6l-4.24,24.4H726l6.48-36.8h7.28l-.64,3.2a17.33,17.33,0,0,1,11.12-4,15.94,15.94,0,0,1,11.6,5A15.69,15.69,0,0,1,765.94,273.39Z"/><path class="cls-1" d="M799.54,293.07a17.57,17.57,0,0,1-27.68-14.4,20.22,20.22,0,0,1,20.4-20.8,18,18,0,0,1,12.56,4.56l.72-3.76h7.28l-6.48,36.8h-7.28Zm3.6-23.6a13.58,13.58,0,0,0-10.08-4.4c-7.2,0-13.6,5.44-13.6,13.2,0,6.48,4.72,10.8,11.12,10.8a14.76,14.76,0,0,0,10-4.4Z"/><path class="cls-1" d="M256.63,360.27a21,21,0,0,1-15,6c-11.6,0-20.24-8.4-20.24-19.2,0-11.6,9.68-20.4,21.2-20.4a20.34,20.34,0,0,1,15.92,7.12l-6.8,6.32a12,12,0,0,0-8.8-3.84c-5.6,0-11.12,4.56-11.12,10.8,0,5.28,4.32,9.6,10.16,9.6a12.78,12.78,0,0,0,8.48-3.44Z"/><path class="cls-1" d="M279.19,366.27c-11.28,0-19.76-8.48-19.76-19,0-11.44,9.84-20.64,21.36-20.64,11.28,0,19.76,8.48,19.76,19C300.55,357.07,290.71,366.27,279.19,366.27Zm0-9.6a11.15,11.15,0,0,0,11-11,9.17,9.17,0,0,0-9.36-9.36,11.15,11.15,0,0,0-11,11A9.17,9.17,0,0,0,279.19,356.67Z"/><path class="cls-1" d="M319.75,327.47l-.56,2.8a19.4,19.4,0,0,1,10.8-3.6,15.85,15.85,0,0,1,13.12,6.8,17.41,17.41,0,0,1,2.88,9.92,41.42,41.42,0,0,1-.64,6.8l-2.72,15.28H332.15l3-17a24.58,24.58,0,0,0,.48-4.56c0-4.32-2.4-7.6-7.28-7.6-3.68,0-7.52,2.08-10.24,4.8l-4.32,24.4H303.35l6.72-38Z"/><path class="cls-1" d="M380.07,365.47a24.22,24.22,0,0,1-6.88.8c-8.56,0-15.2-5.52-15.2-14.24a36.45,36.45,0,0,1,.72-6.32l1.68-9.44h-10.8l1.6-8.8H362l1.92-10.8h10.48l-1.92,10.8h13.2l-1.6,8.8h-13.2L369,347a30.51,30.51,0,0,0-.56,4.32c0,4,1.84,5.76,6.16,5.76a18.87,18.87,0,0,0,3.84-.4Z"/><path class="cls-1" d="M413.19,336.59a9.94,9.94,0,0,0-2.64-.32c-3.84,0-7.6,2.8-9.36,5.2l-4.24,24H386.47l6.72-38h9.68l-.64,3.2a13.23,13.23,0,0,1,9.84-4,14,14,0,0,1,4.08.56Z"/><path class="cls-1" d="M435.59,366.27c-11.28,0-19.76-8.48-19.76-19,0-11.44,9.84-20.64,21.36-20.64,11.28,0,19.76,8.48,19.76,19C457,357.07,447.11,366.27,435.59,366.27Zm0-9.6a11.15,11.15,0,0,0,11-11,9.17,9.17,0,0,0-9.36-9.36,11.15,11.15,0,0,0-11,11A9.17,9.17,0,0,0,435.59,356.67Z"/><path class="cls-1" d="M469.83,308.67h10.48l-10.08,56.8H459.75Z"/><path class="cls-1" d="M523.43,327.47l-6.72,38h-9.52l.4-2.56A17,17,0,0,1,497,366.27c-9.2,0-17-7.2-17-17.92,0-7.28,3.84-15,10.32-18.8a21.1,21.1,0,0,1,10.48-2.88,20.61,20.61,0,0,1,12.4,4.4l.64-3.6Zm-12.72,12.64a13.08,13.08,0,0,0-9.2-3.76,11.24,11.24,0,0,0-11.12,11.52c0,5.2,3.36,8.88,8.88,8.88a12.74,12.74,0,0,0,9.28-4.24Z"/><path class="cls-1" d="M573.27,308.67l-10.08,56.8h-9.52l.4-2.56a17,17,0,0,1-10.57,3.36c-9.2,0-17-7.2-17-17.92,0-7.28,3.84-15,10.33-18.8a20.06,20.06,0,0,1,22.16,1l3.84-21.84Zm-16.08,31.44a13.08,13.08,0,0,0-9.2-3.76,11.24,11.24,0,0,0-11.12,11.52c0,5.2,3.35,8.88,8.88,8.88a12.74,12.74,0,0,0,9.28-4.24Z"/><path class="cls-1" d="M616.39,327.47l-6.72,38h-9.53l.4-2.56A17,17,0,0,1,590,366.27c-9.2,0-17-7.2-17-17.92,0-7.28,3.84-15,10.32-18.8a21.14,21.14,0,0,1,10.49-2.88,20.65,20.65,0,0,1,12.4,4.4l.64-3.6Zm-12.72,12.64a13.1,13.1,0,0,0-9.21-3.76,11.24,11.24,0,0,0-11.12,11.52c0,5.2,3.36,8.88,8.88,8.88a12.71,12.71,0,0,0,9.28-4.24Z"/><path class="cls-1" d="M629.9,352.59a6.84,6.84,0,1,1,0,13.68,6.84,6.84,0,1,1,0-13.68Z"/><line x1="373.95" y1="205.88" x2="483.95" y2="205.88"/><path class="cls-1" d="M484,208.38H374a2.5,2.5,0,1,1,0-5H484a2.5,2.5,0,0,1,0,5Z"/><path class="cls-1" d="M130.61,149.19c1.44,0,3,2.33,3,7.08,0,9.73-6.53,17.25-19.58,17.25-18.47,0-29.3-15-29.3-40.81,0-31.29,16-75.2,34-102.41-28,30.64-69.23,92.57-69.23,107.39,0,2.66-1.44,3.87-3.54,3.87-6.64,0-19.8-10.73-19.8-20.35,0-12.38,22-73.43,35.61-98.1-24.66,9.41-51.42,34.18-51.42,56.3,0,9.73,5.08,15.37,12.49,15.37,3.1,0,4.76,1.11,4.76,2.32,0,1.44-2.32,2.88-7.08,2.88C8.29,100,0,89.91,0,74.76,0,41.36,40.81,6,72.55,6,81,6,92.68,14.6,92.68,20c0,1.66-1.11,3.09-1.88,3.09-4.54,0-28.31,53-38.49,86.16C72.77,69.56,128,0,142.67,0c6,0,15.15,11.28,15.15,17.36,0,2.44-1.44,4.43-3.21,4.43-12.16,0-47,90.8-47,126.52,0,11.5,3.65,18,9.84,18,5.86,0,10.84-5.76,10.84-12.39C128.29,150.85,129.51,149.19,130.61,149.19Z"/><path class="cls-1" d="M145.21,135.37c-11.5,0-21.12-11.39-21.12-25.44,0-20.57,20.79-50,35.28-50,11.61,0,25.55,7.74,25.55,14.38,0,2.21-1.55,3.54-2.66,3.54a2.07,2.07,0,0,1-.88-.22,33.64,33.64,0,0,1,.66,7.08c0,1.1,0,2.21-.11,3.31,9,0,17.26-5.19,20.68-12.6,1.22-2.66,2.44-3.43,3.65-3.43,1.55,0,2.55,1.33,2.55,3.76,0,9-14.6,18.8-27.76,18.8C176.84,115.13,160.48,135.37,145.21,135.37Zm5-9.4c8.41,0,19.8-17.14,23.67-32.63-6.86-2.21-12-7.3-12.72-13.27-8.52,8.85-15.59,25.33-15.59,37.6C145.55,124.42,147.65,126,150.19,126Zm21.9-49.77c-1.44,0-2.65,1.44-2.65,3.76,0,3,2.1,5.42,5.52,6.86a27.74,27.74,0,0,0,.12-3.1C175.08,78.63,173.75,76.2,172.09,76.2Z"/><path class="cls-1" d="M205.49,126c16.59,0,44.79-43.13,48-48.89,1.11-2,2.21-3.09,3.54-3.09,1.66,0,3.21,1.88,3.21,4.09a6.59,6.59,0,0,1-.78,2.77c-.33.77-31.52,54.52-57.51,54.52-11.28,0-22.23-10.07-22.23-25.33,0-21.12,20.79-49,38.93-49,10.29,0,21,9,21,17.47,0,3.21-1.54,4.54-2.76,4.54a1.49,1.49,0,0,1-1.55-1.66c0-2.1-2.54-3.43-5.42-3.43-12.16,0-29.64,22-29.64,40.26C200.29,124.42,202.28,126,205.49,126Z"/><path class="cls-1" d="M307.13,75.09c-4.31,0-18.91,35.73-18.91,48.33,0,1.11.11,1.77.33,1.77,1.55,0,31.41-43.13,33.95-47.33,1.44-2.32,3.43-3.87,5.31-3.87,1.44,0,2.77,1,2.66,2.1-.34,4.87-37.28,59.28-41.15,59.28-11.5,0-22.56-6.41-22.56-12.06,0-10.83,6-30.52,11.61-42.91-14.7,18.47-30.19,44.9-30.19,52.65,0,1.77-.77,2.32-2,2.32-4.09,0-18.25-6.53-18.25-13.38,0-10.73,33.07-101.31,42.58-101.31,6.64,0,19.25,6.08,19.25,9.62a1.36,1.36,0,0,1-1.22,1.44c-4.87,0-24.11,42.14-35,71.34,11.5-19.69,29.31-42,35.72-42,3.54,0,19.25,7.19,19.25,11.94C308.57,74.1,307.79,75.09,307.13,75.09Z"/><path class="cls-1" d="M336.88,106.5c-4.42,0-10.95-3.2-10.95-4.64,0-.44.77-.78,2.21-.78,7.19,0,21.35-9.4,23.34-23-12.06,1.33-29.31,22.34-29.31,37.6,0,6.42,3.1,10.29,8.07,10.29,16.59,0,44.13-42.58,47.34-48.66C378.8,75.09,380,74,381.23,74c1.77,0,3.21,1.88,3.21,4.09a6.84,6.84,0,0,1-.67,2.77c-1.21,2.43-31.08,54.52-56.84,54.52-12.28,0-25.22-12-25.22-27.32,0-19.91,21.9-47,39.59-47,9.85,0,21.13,8.4,21.13,17.36C362.43,93.67,345.51,106.5,336.88,106.5Z"/><path class="cls-1" d="M443.49,106.5c-4.42,0-10.95-3.2-10.95-4.64,0-.44.78-.78,2.22-.78,7.18,0,21.34-9.4,23.33-23-12,1.33-29.31,22.34-29.31,37.6,0,6.42,3.1,10.29,8.08,10.29,16.59,0,44.12-42.58,47.33-48.66,1.22-2.22,2.43-3.32,3.65-3.32,1.77,0,3.21,1.88,3.21,4.09a6.69,6.69,0,0,1-.67,2.77c-1.21,2.43-31.07,54.52-56.84,54.52-12.28,0-25.22-12-25.22-27.32,0-19.91,21.9-47,39.6-47,9.84,0,21.12,8.4,21.12,17.36C469,93.67,452.12,106.5,443.49,106.5Z"/><path class="cls-1" d="M514.16,125.19c1.55,0,31.41-42.69,34-46.89,1.44-2.32,3.43-3.87,5.31-3.87,1.44,0,2.77,1,2.66,2.1-.33,4.87-37.38,58.84-41.37,58.84-13.38,0-28.09-8.18-31.63-17a3.77,3.77,0,0,1-.44-1.33C471.36,129.18,463,140.12,463,145.1c0,1.88-1.11,2.66-3.1,2.66-3.1,0-5.42-1.88-5.42-5.09,0-7.08,11.28-21.79,25.66-36.72-2.77-14.49-5.53-35.72-5.53-38.93,0-4.53,5.53-5.86,10.06-5.86,7,0,17.59,3.21,17.59,5.53a2.14,2.14,0,0,1-1.66,1.66c-.78,0-1.11,1.44-1.11,3.76A82.67,82.67,0,0,0,501,85.71c15.6-13.82,30.19-24.55,35.06-24.55,3.21,0,7.74,4.53,7.74,8.29,0,.56-.11.89-1.1.89-1.33,0-2.66-.78-3.76-.78-4.32,0-19.8,12.17-35.62,27C506.64,110.82,511.4,125.19,514.16,125.19Z"/><path class="cls-1" d="M573,61.05c4.53,0,6.75,1.88,6.75,3.76s-2.22,3.76-6.75,3.76h-9c-9.51,22.12-18.69,47.78-18.69,55.08,0,.77.11,1.54.33,1.54,1.55,0,31.41-42.35,34.07-46.67,1.32-2.21,3.31-3.76,5.19-3.76,1.44,0,2.77,1,2.66,2.1-.33,4.87-37.27,58.51-41.37,58.51-11.5,0-22.56-6.41-22.56-13.94,0-6.3,7.63-30,16.59-52.86H537.5c-4.54,0-6.86-1.88-6.86-3.76s2.32-3.76,6.86-3.76h5.86c8.85-21.57,18.25-40.37,22.67-40.37,2.66,0,19.24,6.86,19.24,10.73a2.6,2.6,0,0,1-2,2.32c-2.54,0-9.06,12-15.92,27.32Z"/><path class="cls-1" d="M594,106.5c-4.42,0-11-3.2-11-4.64,0-.44.78-.78,2.21-.78,7.19,0,21.35-9.4,23.34-23-12.06,1.33-29.31,22.34-29.31,37.6,0,6.42,3.1,10.29,8.07,10.29,16.59,0,44.13-42.58,47.34-48.66,1.22-2.22,2.43-3.32,3.65-3.32,1.77,0,3.21,1.88,3.21,4.09a6.84,6.84,0,0,1-.67,2.77c-1.21,2.43-31.07,54.52-56.84,54.52-12.28,0-25.22-12-25.22-27.32,0-19.91,21.9-47,39.59-47,9.85,0,21.13,8.4,21.13,17.36C619.56,93.67,602.64,106.5,594,106.5Z"/><path class="cls-1" d="M703.17,75.54c1.32-1.55,3.2-3.1,4.86-3.1a3,3,0,0,1,2.66,2c.22,4.2-25.11,29.64-29.31,29.64-8.74,0-22.56-7.41-22.56-12A29.87,29.87,0,0,1,660.7,82c-14.49,18.36-29.09,43.58-29.09,51.1,0,1.77-.77,2.32-2,2.32-4.09,0-20-6.64-20-14.16,0-8.07,18.58-60,24.22-60,5.09,0,19.69,5.31,19.69,9.4,0,.66-.44,1.22-.78,1.22-2.21,0-9.51,15.15-15.15,30.3,11.62-19.35,28.76-40.92,35.06-40.92,3.76,0,19.47,7.19,19.47,12.17A2.65,2.65,0,0,1,689.78,76c-3.87,0-9.29,12.83-9.29,19.13,0,.89.11,1.22.34,1.22C682.37,96.33,700.18,79.19,703.17,75.54Z"/><path class="cls-1" d="M677,122.1c0-8.3,18.35-61,23.44-61,6.31,0,18.25,7.19,18.25,11.61,0,1-.66,1.66-1.11,1.66-4.2,0-17.8,44.24-17.8,49.66,0,.55.11,1.21.33,1.21,1.55,0,31.41-42,34.06-46.34,1.33-2.21,3.32-3.76,5.2-3.76,1.44,0,2.77,1,2.66,2.11-.34,4.86-37.39,58.17-41.37,58.17C689.12,135.37,677,129,677,122.1Zm28.09-76.31c0-9.18,10-25.11,16-25.11,4.21,0,16,7.41,16,10.84a1.78,1.78,0,0,1-1.66,1.66c-4,0-11.17,15.7-11.17,22.89,0,1.33-.22,2.21-4,2.21C711.35,58.28,705.05,53,705.05,45.79Z"/><path class="cls-1" d="M735.13,135.37c-11.5,0-21.13-11.39-21.13-25.44,0-20.57,20.8-50,35.28-50,11.62,0,25.55,7.74,25.55,14.38,0,2.21-1.55,3.54-2.65,3.54a2.12,2.12,0,0,1-.89-.22,33.59,33.59,0,0,1,.67,7.08c0,1.1,0,2.21-.11,3.31,8.95,0,17.25-5.19,20.68-12.6C793.74,72.77,795,72,796.18,72c1.54,0,2.54,1.33,2.54,3.76,0,9-14.6,18.8-27.76,18.8C766.76,115.13,750.39,135.37,735.13,135.37Zm5-9.4c8.41,0,19.8-17.14,23.67-32.63-6.86-2.21-11.94-7.3-12.72-13.27-8.51,8.85-15.59,25.33-15.59,37.6C735.46,124.42,737.56,126,740.1,126ZM762,76.2c-1.44,0-2.65,1.44-2.65,3.76,0,3,2.1,5.42,5.53,6.86a30.25,30.25,0,0,0,.11-3.1C765,78.63,763.66,76.2,762,76.2Z"/><path class="cls-1" d="M859.88,75.54c1.33-1.55,3.21-3.1,4.87-3.1a3,3,0,0,1,2.65,2c.22,4.2-25.1,29.64-29.31,29.64-8.73,0-22.56-7.41-22.56-12A30.12,30.12,0,0,1,817.41,82c-14.49,18.36-29.08,43.58-29.08,51.1,0,1.77-.78,2.32-2,2.32-4.1,0-20-6.64-20-14.16,0-8.07,18.58-60,24.22-60,5.09,0,19.68,5.31,19.68,9.4,0,.66-.44,1.22-.77,1.22-2.21,0-9.51,15.15-15.15,30.3,11.61-19.35,28.75-40.92,35.06-40.92,3.76,0,19.46,7.19,19.46,12.17A2.65,2.65,0,0,1,846.5,76c-3.87,0-9.29,12.83-9.29,19.13,0,.89.11,1.22.33,1.22C839.09,96.33,856.9,79.19,859.88,75.54Z"/></g></g></svg>